HIERARCHY
ROOT Hips
{
	OFFSET 0.000000 8.830580 0.000000
	CHANNELS 6 Xposition Yposition Zposition Zrotation Yrotation Xrotation 
	JOINT Spine
	{
		OFFSET 0.000000 0.010000 0.000000
		CHANNELS 3 Zrotation Yrotation Xrotation
		JOINT Spine1
		{
			OFFSET 0.000000 2.459130 0.000000
			CHANNELS 3 Zrotation Yrotation Xrotation
			JOINT Neck
			{
				OFFSET 0.000000 2.484630 0.000000
				CHANNELS 3 Zrotation Yrotation Xrotation
				JOINT Head_virtual
				{
					OFFSET 0.000000 0.000000 0.000000
					CHANNELS 3 Zrotation Yrotation Xrotation
					JOINT Head
					{
						OFFSET 0.000000 0.927525 0.000000
						CHANNELS 3 Zrotation Yrotation Xrotation
						End Site
						{
							OFFSET 0.000000 0.000000 0.000000
						}
					}
				}
				JOINT LeftUpArm_virtual
				{
					OFFSET 0.000000 0.000000 0.000000
					CHANNELS 3 Zrotation Yrotation Xrotation
					JOINT LeftUpArm
					{
						OFFSET 1.248820 0.000000 0.000000
						CHANNELS 3 Zrotation Yrotation Xrotation
						JOINT LeftForeArm
						{
							OFFSET 2.597580 0.000000 0.000000
							CHANNELS 3 Zrotation Yrotation Xrotation
							JOINT LeftHand
							{
								OFFSET 2.455420 0.000000 0.000000
								CHANNELS 3 Zrotation Yrotation Xrotation
								End Site
								{
									OFFSET 0.000000 0.000000 0.000000
								}
							}
						}
					}
				}
				JOINT RightUpArm_virtual
				{
					OFFSET -0.000000 -0.000000 -0.000000
					CHANNELS 3 Zrotation Yrotation Xrotation
					JOINT RightUpArm
					{
						OFFSET -1.248820 -0.000000 -0.000000
						CHANNELS 3 Zrotation Yrotation Xrotation
						JOINT RightForeArm
						{
							OFFSET -2.597580 -0.000000 -0.000000
							CHANNELS 3 Zrotation Yrotation Xrotation
							JOINT RightHand
							{
								OFFSET -2.455420 -0.000000 -0.000000
								CHANNELS 3 Zrotation Yrotation Xrotation
								End Site
								{
									OFFSET 0.000000 0.000000 0.000000
								}
							}
						}
					}
				}
			}
		}
	}
	JOINT LeftUpLeg
	{
		OFFSET 1.271939 0.000000 0.000000
		CHANNELS 3 Zrotation Yrotation Xrotation
		JOINT LeftLowLeg
		{
			OFFSET 0.000000 -4.342910 0.000000
			CHANNELS 3 Zrotation Yrotation Xrotation
			JOINT LeftFoot
			{
				OFFSET 0.000000 -4.487670 0.000000
				CHANNELS 3 Zrotation Yrotation Xrotation
				JOINT LeftToeBase
				{
					OFFSET 0.000000 0.000000 1.515070
					CHANNELS 3 Zrotation Yrotation Xrotation
					End Site
					{
						OFFSET 0.000000 0.000000 0.000000
					}
				}
			}
		}
	}
	JOINT RightUpLeg
	{
		OFFSET -1.271939 0.000000 0.000000
		CHANNELS 3 Zrotation Yrotation Xrotation
		JOINT RightLowLeg
		{
			OFFSET 0.000000 -4.342910 0.000000
			CHANNELS 3 Zrotation Yrotation Xrotation
			JOINT RightFoot
			{
				OFFSET 0.000000 -4.487670 0.000000
				CHANNELS 3 Zrotation Yrotation Xrotation
				JOINT RightToeBase
				{
					OFFSET 0.000000 0.000000 1.515070
					CHANNELS 3 Zrotation Yrotation Xrotation
					End Site
					{
						OFFSET 0.000000 0.000000 0.000000
					}
				}
			}
		}
	}
}
MOTION
Frames: 14
Frame Time: 0.041667
-18.299114 9.154928 43.988928 -175.088455 2.427684 -173.329570 1.729079 -0.911981 -6.898898 4.079581 -0.589491 -10.923885 0.000000 0.000000 0.000000 -10.113089 -1.419562 29.883156 16.183161 13.558584 -81.249189 -24.632900 11.283800 -9.932750 13.506800 -9.216880 -24.702400 0.000000 -6.396550 0.000000 24.185101 9.391180 28.207899 21.609501 -6.553610 -0.933014 -10.245900 -0.627488 -54.941601 0.000000 15.306300 0.000000 -29.047300 -8.529630 44.673901 2.480558 3.680541 -5.440475 0.000000 0.000000 7.375120 -14.956427 8.319891 0.320472 0.000000 0.000000 -29.543500 6.686884 3.426320 -5.859040 0.000000 0.000000 8.592170 12.036393 -18.647429 5.205989 0.000000 0.000000 -30.188400 
-18.299698 9.155232 43.990450 -175.078816 2.470864 -173.320138 1.737341 -0.911554 -6.876194 4.075442 -0.590558 -10.921587 0.000000 0.000000 0.000000 -10.110614 -1.459780 29.926437 16.227370 13.531573 -81.219704 -24.652700 11.289800 -9.950350 13.577800 -9.198320 -24.577999 0.000000 -6.248490 0.000000 24.299601 9.390520 28.330099 21.605000 -6.528960 -0.936005 -10.266000 -0.594601 -55.105999 0.000000 15.251600 0.000000 -29.122400 -8.445910 44.806999 2.484060 3.699964 -5.456638 0.000000 0.000000 7.385160 -14.964082 8.332304 0.317552 0.000000 0.000000 -29.522400 6.688829 3.399648 -5.869005 0.000000 0.000000 8.573040 12.016075 -18.586087 5.250865 0.000000 0.000000 -30.212000 
-18.300528 9.155428 43.991514 -175.073867 2.537278 -173.311782 1.741293 -0.892717 -6.856796 4.060838 -0.572117 -10.918151 0.000000 0.000000 0.000000 -10.098040 -1.534754 29.991198 16.289507 13.505026 -81.191303 -24.666000 11.303800 -9.977220 13.642600 -9.207060 -24.521299 0.000000 -6.154710 0.000000 24.464500 9.458850 28.426399 21.594601 -6.500760 -0.925995 -10.248500 -0.631265 -55.136398 0.000000 15.302800 0.000000 -29.148100 -8.494850 44.806301 2.477982 3.725028 -5.457074 0.000000 0.000000 7.379790 -14.948476 8.375568 0.312534 0.000000 0.000000 -29.486000 6.684120 3.386650 -5.879925 0.000000 0.000000 8.560320 11.984928 -18.531620 5.292044 0.000000 0.000000 -30.200200 
-18.301083 9.155485 43.991642 -175.074943 2.602125 -173.306246 1.740596 -0.870262 -6.867366 4.057829 -0.551181 -10.876909 0.000000 0.000000 0.000000 -10.105056 -1.583895 30.034500 16.345544 13.464757 -81.179542 -24.670700 11.312900 -9.956040 13.675000 -9.183760 -24.536200 0.000000 -6.122790 0.000000 24.584600 9.455550 28.457001 21.607401 -6.484010 -0.921997 -10.297200 -0.644088 -55.066700 0.000000 15.265900 0.000000 -29.216299 -8.448820 44.854099 2.467250 3.764107 -5.443588 0.000000 0.000000 7.360850 -14.938724 8.392312 0.319117 0.000000 0.000000 -29.542500 6.672410 3.423180 -5.886129 0.000000 0.000000 8.556300 11.989785 -18.507220 5.305751 0.000000 0.000000 -30.226700 
-18.301828 9.155553 43.992635 -175.074748 2.654968 -173.304011 1.737201 -0.852355 -6.864143 4.053176 -0.535201 -10.816778 0.000000 0.000000 0.000000 -10.101642 -1.693411 30.112544 16.408766 13.414399 -81.169043 -24.674200 11.338100 -9.966760 13.720700 -9.168320 -24.496500 0.000000 -6.128900 0.000000 24.663700 9.452440 28.198799 21.615801 -6.502980 -0.977997 -10.346100 -0.616777 -55.049099 0.000000 15.275500 0.000000 -29.154400 -8.510810 44.928799 2.458198 3.773146 -5.441971 0.000000 0.000000 7.362510 -14.930396 8.438552 0.305305 0.000000 0.000000 -29.502300 6.664600 3.436772 -5.896722 0.000000 0.000000 8.555390 11.968647 -18.488013 5.326178 0.000000 0.000000 -30.178100 
-18.302294 9.155624 43.993226 -175.072274 2.674877 -173.305861 1.734713 -0.844304 -6.861519 4.050076 -0.527931 -10.787363 0.000000 0.000000 0.000000 -10.082281 -1.785543 30.171749 16.417451 13.398390 -81.156865 -24.677601 11.346700 -9.996290 13.753200 -9.177840 -24.498600 0.000000 -6.156100 0.000000 24.728901 9.469670 28.301901 21.604200 -6.496480 -1.028992 -10.334500 -0.626031 -55.097099 0.000000 15.350400 0.000000 -29.124500 -8.667490 45.014198 2.456434 3.772789 -5.440135 0.000000 0.000000 7.361880 -14.943750 8.454119 0.296219 0.000000 0.000000 -29.491000 6.661736 3.478795 -5.902304 0.000000 0.000000 8.557850 11.959775 -18.515759 5.335304 0.000000 0.000000 -30.212700 
-18.302884 9.155599 43.994041 -175.066689 2.692624 -173.307022 1.727629 -0.831996 -6.839595 4.063409 -0.515004 -10.778340 0.000000 0.000000 0.000000 -10.073125 -1.887447 30.262388 16.442933 13.358082 -81.122595 -24.667801 11.362700 -10.046400 13.766100 -9.200930 -24.432301 0.000000 -6.206780 0.000000 24.731001 9.418110 28.315599 21.574699 -6.526550 -1.075012 -10.322100 -0.621321 -54.974098 0.000000 15.387900 0.000000 -29.201599 -8.726150 44.950500 2.457043 3.771564 -5.441911 0.000000 0.000000 7.364190 -14.938910 8.471910 0.294514 0.000000 0.000000 -29.483100 6.662988 3.475753 -5.906904 0.000000 0.000000 8.559060 11.958405 -18.503166 5.343699 0.000000 0.000000 -30.247600 
-18.303421 9.155739 43.994600 -175.065931 2.693627 -173.307643 1.715706 -0.825825 -6.834613 4.064994 -0.507761 -10.755827 0.000000 0.000000 0.000000 -10.043069 -2.010533 30.359858 16.451589 13.338145 -81.081398 -24.658701 11.372300 -10.077400 13.798000 -9.223900 -24.333099 0.000000 -6.275270 0.000000 24.689800 9.420260 28.240000 21.601801 -6.504130 -1.040009 -10.397000 -0.682656 -55.111801 0.000000 15.313400 0.000000 -29.050600 -8.546380 44.972599 2.454214 3.778473 -5.441945 0.000000 0.000000 7.358900 -14.922583 8.477414 0.301292 0.000000 0.000000 -29.497500 6.658024 3.462240 -5.896410 0.000000 0.000000 8.536120 11.967785 -18.473766 5.354424 0.000000 0.000000 -30.250800 
-18.304086 9.155834 43.995936 -175.066550 2.656538 -173.304170 1.710721 -0.842777 -6.813361 4.059686 -0.523150 -10.771554 0.000000 0.000000 0.000000 -10.022550 -2.096967 30.482511 16.474559 13.315466 -81.009431 -24.667500 11.358400 -10.071400 13.866900 -9.236170 -24.406601 0.000000 -6.307250 0.000000 24.718100 9.356500 28.322001 21.585199 -6.539970 -1.126007 -10.394000 -0.630494 -54.991299 0.000000 15.287300 0.000000 -29.122999 -8.488610 44.974800 2.453412 3.744412 -5.466525 0.000000 0.000000 7.369890 -14.924801 8.470158 0.309577 0.000000 0.000000 -29.494700 6.657673 3.419999 -5.909923 0.000000 0.000000 8.539730 11.969557 -18.472900 5.360388 0.000000 0.000000 -30.236900 
-18.304732 9.155826 43.996191 -175.066120 2.639881 -173.283166 1.708489 -0.847212 -6.839261 4.044767 -0.528011 -10.747162 0.000000 0.000000 0.000000 -10.002083 -2.178770 30.609161 16.507761 13.305783 -80.961842 -24.645901 11.361600 -10.076100 13.891000 -9.250410 -24.382401 0.000000 -6.422990 0.000000 24.759800 9.442510 28.114901 21.573400 -6.537040 -1.160004 -10.369800 -0.633726 -54.805901 0.000000 15.324600 0.000000 -29.317301 -8.639060 44.872799 2.447542 3.786671 -5.491656 0.000000 0.000000 7.364980 -14.934122 8.405024 0.328226 0.000000 0.000000 -29.494700 6.656264 3.436991 -5.935234 0.000000 0.000000 8.541360 11.959370 -18.514730 5.361226 0.000000 0.000000 -30.255700 
-18.305177 9.155793 43.996431 -175.064582 2.621638 -173.277440 1.695022 -0.843280 -6.844945 4.057838 -0.522642 -10.732352 0.000000 0.000000 0.000000 -10.006448 -2.249393 30.761812 16.514360 13.279992 -80.934963 -24.635900 11.368800 -10.075500 13.880600 -9.283460 -24.511999 0.000000 -6.556960 0.000000 24.820900 9.426560 27.829100 21.571100 -6.530320 -1.158997 -10.371800 -0.682011 -54.830200 0.000000 15.342000 0.000000 -29.328501 -8.610250 44.906200 2.447583 3.786058 -5.494017 0.000000 0.000000 7.350610 -14.919168 8.406364 0.340862 0.000000 0.000000 -29.538000 6.656576 3.409419 -5.940041 0.000000 0.000000 8.536860 11.950133 -18.502035 5.366123 0.000000 0.000000 -30.263500 
-18.306022 9.155789 43.996160 -175.065851 2.624177 -173.262601 1.691376 -0.826360 -6.867838 4.041358 -0.505853 -10.704122 0.000000 0.000000 0.000000 -9.997872 -2.321777 30.942591 16.544746 13.265300 -80.880423 -24.616699 11.374600 -10.100300 13.835400 -9.289660 -24.824900 0.000000 -6.835860 0.000000 24.902800 9.366940 27.529100 21.579399 -6.563130 -1.173004 -10.370100 -0.682914 -54.807400 0.000000 15.325700 0.000000 -29.225401 -8.537600 44.895199 2.438384 3.819045 -5.489758 0.000000 0.000000 7.315860 -14.927152 8.372418 0.358824 0.000000 0.000000 -29.559500 6.648279 3.432038 -5.947946 0.000000 0.000000 8.527430 11.979026 -18.511554 5.357245 0.000000 0.000000 -30.300400 
-18.306451 9.155585 43.997117 -175.063533 2.583975 -173.258527 1.678354 -0.836863 -6.853184 4.054945 -0.514322 -10.706937 0.000000 0.000000 0.000000 -10.001882 -2.392899 31.090693 16.554793 13.232260 -80.837616 -24.588499 11.389900 -10.039300 13.773900 -9.225340 -24.712200 0.000000 -7.144160 0.000000 24.800200 9.448950 27.035999 21.572399 -6.602560 -1.197998 -10.336700 -0.633173 -54.815498 0.000000 15.349000 0.000000 -29.215700 -8.579690 44.897301 2.442801 3.758318 -5.514185 0.000000 0.000000 7.332560 -14.917570 8.397031 0.343280 0.000000 0.000000 -29.534400 6.651769 3.392321 -5.961003 0.000000 0.000000 8.535010 11.977509 -18.511100 5.352113 0.000000 0.000000 -30.271500 
-18.306987 9.155383 43.997160 -175.066698 2.565905 -173.251668 1.657341 -0.847270 -6.869595 4.071985 -0.522943 -10.675150 0.000000 0.000000 0.000000 -9.989322 -2.496161 31.253333 16.515903 13.216816 -80.796654 -24.598499 11.425100 -10.067900 13.750500 -9.266500 -24.683599 0.000000 -7.301790 0.000000 24.750200 9.372490 26.933901 21.576599 -6.578240 -1.260010 -10.272600 -0.677702 -54.867100 0.000000 15.439600 0.000000 -28.915501 -8.510310 44.813099 2.437451 3.756293 -5.524244 0.000000 0.000000 7.330540 -14.932275 8.367872 0.343052 0.000000 0.000000 -29.519500 6.643917 3.420912 -5.971309 0.000000 0.000000 8.544650 11.980183 -18.541042 5.329237 0.000000 0.000000 -30.266500 
